<?xml version="1.0" encoding="UTF-8"?>
<!DOCTYPE svg PUBLIC "-//W3C//DTD SVG 1.1//EN" "http://www.w3.org/Graphics/SVG/1.1/DTD/svg11.dtd">
<!-- Creator: CorelDRAW X7 -->
<svg xmlns="http://www.w3.org/2000/svg" xml:space="preserve" width="8.26772in" height="11.6929in" version="1.1" style="shape-rendering:geometricPrecision; text-rendering:geometricPrecision; image-rendering:optimizeQuality; fill-rule:evenodd; clip-rule:evenodd"
viewBox="0 0 8268 11693"
 xmlns:xlink="http://www.w3.org/1999/xlink">
 <defs>
  <style type="text/css">
   <![CDATA[
    .str0 {stroke:#605E9B;stroke-width:4.16535}
    .str1 {stroke:#605E9B;stroke-width:2.77953}
    .str2 {stroke:#605E9B;stroke-width:4.16535}
    .str5 {stroke:#66569F;stroke-width:4.16535}
    .str3 {stroke:#605E9B;stroke-width:4.16535}
    .str4 {stroke:#605E9B;stroke-width:4.16535}
    .fil1 {fill:none}
    .fil0 {fill:#605E9B}
    .fil2 {fill:#1E4FAB}
    .fil5 {fill:#D9455F;fill-rule:nonzero}
    .fil4 {fill:#994A7E;fill-rule:nonzero}
    .fil3 {fill:#3E4095;fill-rule:nonzero}
   ]]>
  </style>
 </defs>
 <g id="Layer_x0020_1">
  <metadata id="CorelCorpID_0Corel-Layer"/>
  <path class="fil0 str0" d="M3759 5573c4,0 7,3 8,6l51 0 55 0 28 28 26 29 5 0 10 0 0 3 0 3 -10 0 -7 0 -27 -29 -28 -28 -103 0c-2,2 -5,4 -8,4 -4,0 -8,-3 -8,-8 0,-4 4,-8 8,-8z"/>
  <path class="fil0 str1" d="M3550 5632c10,0 18,6 20,14l297 1 60 61 36 1 9 15 -51 -1 -61 -65 -289 0c-2,9 -11,16 -21,16 -11,0 -21,-9 -21,-21 0,-12 10,-21 21,-21z"/>
  <g>
   <path class="fil1 str2" d="M3699 5686c4,0 7,3 8,6l51 0 79 0 27 28 40 40 5 0 108 0 0 3 1 3 -47 0 21 21 39 40 5 0 180 0c1,-4 5,-8 10,-8 6,0 10,5 10,11 0,5 -4,10 -10,10 -4,0 -8,-3 -9,-7l-182 0 -6 0 -40 -40 -27 -27 -54 0 -6 0 -40 -40 -28 -28 -127 0c-2,3 -4,5 -8,5 -4,0 -8,-4 -8,-8 0,-5 4,-9 8,-9zm527 136c4,0 8,3 8,7 0,5 -4,8 -8,8 -4,0 -8,-3 -8,-8 0,-4 4,-7 8,-7zm-527 -133c3,0 6,2 6,6 0,3 -3,6 -6,6 -3,0 -6,-3 -6,-6 0,-4 3,-6 6,-6z"/>
   <path id="1" class="fil0" d="M3699 5686c4,0 7,3 8,6l51 0 79 0 27 28 40 40 5 0 108 0 0 3 1 3 -47 0 21 21 39 40 5 0 180 0c1,-4 5,-8 10,-8 6,0 10,5 10,11 0,5 -4,10 -10,10 -4,0 -8,-3 -9,-7l-182 0 -6 0 -40 -40 -27 -27 -54 0 -6 0 -40 -40 -28 -28 -127 0c-2,3 -4,5 -8,5 -4,0 -8,-4 -8,-8 0,-5 4,-9 8,-9zm527 136c4,0 8,3 8,7 0,5 -4,8 -8,8 -4,0 -8,-3 -8,-8 0,-4 4,-7 8,-7zm-527 -133c3,0 6,2 6,6 0,3 -3,6 -6,6 -3,0 -6,-3 -6,-6 0,-4 3,-6 6,-6z"/>
  </g>
  <path class="fil0 str0" d="M3683 5506c5,0 9,3 10,7l229 0 66 -66 190 -1c2,-4 5,-7 10,-7 6,0 10,5 10,11 0,5 -4,10 -10,10 -5,0 -9,-4 -10,-8l-93 0 -95 0 -65 67 -48 0 24 27 43 44 -2 5 -44 -44 -30 -32 -4 0 -86 0 -85 0c-2,4 -5,6 -10,6 -5,0 -9,-4 -9,-9 0,-6 4,-10 9,-10zm505 -65c4,0 8,4 8,8 0,5 -4,9 -8,9 -5,0 -8,-4 -8,-9 0,-4 3,-8 8,-8zm-505 68c4,0 7,3 7,7 0,3 -3,6 -7,6 -4,0 -7,-3 -7,-6 0,-4 3,-7 7,-7z"/>
  <g>
   <path class="fil1 str3" d="M4476 5674c-4,0 -7,-2 -8,-6l-51 0 -55 0 -27 -28 -27 -29 -5 0 -11 0 0 -3 -1 -3 13 0 6 0 27 29 29 28 103 0c1,-2 4,-4 7,-4 4,0 8,3 8,8 0,4 -4,8 -8,8z"/>
   <path id="1" class="fil0" d="M4476 5674c-4,0 -7,-2 -8,-6l-51 0 -55 0 -27 -28 -27 -29 -5 0 -11 0 0 -3 -1 -3 13 0 6 0 27 29 29 28 103 0c1,-2 4,-4 7,-4 4,0 8,3 8,8 0,4 -4,8 -8,8z"/>
  </g>
  <path class="fil0 str1" d="M4681 5616c-9,0 -17,-7 -20,-15l-297 -1 -60 -61 -36 -1 -9 -15 51 1 61 65 289 0c2,-9 11,-16 21,-16 12,0 21,10 21,21 0,12 -9,22 -21,22z"/>
  <g>
   <path class="fil1 str4" d="M4536 5561c-4,0 -7,-3 -8,-6l-51 0 -79 0 -27 -28 -39 -40 -6 0 -108 0 0 -3 0 -3 46 0 -21 -21 -39 -40 -5 0 -180 0c-1,4 -5,8 -10,8 -6,0 -10,-5 -10,-10 0,-6 4,-11 10,-11 4,0 8,3 9,7l182 0 6 0 40 40 27 27 54 0 7 0 39 40 29 28 126 0c2,-3 5,-5 8,-5 4,0 8,4 8,9 0,4 -4,8 -8,8zm-527 -136c-4,0 -8,-3 -8,-7 0,-5 4,-8 8,-8 4,0 8,3 8,8 0,4 -4,7 -8,7zm527 134c-3,0 -6,-3 -6,-6 0,-4 3,-7 6,-7 3,0 6,3 6,7 0,3 -3,6 -6,6z"/>
   <path id="1" class="fil0" d="M4536 5561c-4,0 -7,-3 -8,-6l-51 0 -79 0 -27 -28 -39 -40 -6 0 -108 0 0 -3 0 -3 46 0 -21 -21 -39 -40 -5 0 -180 0c-1,4 -5,8 -10,8 -6,0 -10,-5 -10,-10 0,-6 4,-11 10,-11 4,0 8,3 9,7l182 0 6 0 40 40 27 27 54 0 7 0 39 40 29 28 126 0c2,-3 5,-5 8,-5 4,0 8,4 8,9 0,4 -4,8 -8,8zm-527 -136c-4,0 -8,-3 -8,-7 0,-5 4,-8 8,-8 4,0 8,3 8,8 0,4 -4,7 -8,7zm527 134c-3,0 -6,-3 -6,-6 0,-4 3,-7 6,-7 3,0 6,3 6,7 0,3 -3,6 -6,6z"/>
  </g>
  <g>
   <path class="fil1 str5" d="M4556 5742c-4,0 -8,-3 -9,-7l-229 0 -67 66 -190 1c-1,4 -5,6 -9,6 -6,0 -11,-4 -11,-10 0,-5 5,-10 11,-10 4,0 8,4 9,8l94 0 94 0 65 -67 49 0 -25 -27 -49 -53 2 -5 50 53 30 32 4 0 87 0 85 0c1,-4 5,-6 9,-6 5,0 10,4 10,9 0,6 -5,10 -10,10zm-504 65c-5,0 -8,-4 -8,-9 0,-4 3,-8 8,-8 4,0 8,4 8,8 0,5 -4,9 -8,9zm504 -68c-3,0 -6,-3 -6,-7 0,-3 3,-6 6,-6 4,0 7,3 7,6 0,4 -3,7 -7,7z"/>
   <path id="1" class="fil0" d="M4556 5742c-4,0 -8,-3 -9,-7l-229 0 -67 66 -190 1c-1,4 -5,6 -9,6 -6,0 -11,-4 -11,-10 0,-5 5,-10 11,-10 4,0 8,4 9,8l94 0 94 0 65 -67 49 0 -25 -27 -49 -53 2 -5 50 53 30 32 4 0 87 0 85 0c1,-4 5,-6 9,-6 5,0 10,4 10,9 0,6 -5,10 -10,10zm-504 65c-5,0 -8,-4 -8,-9 0,-4 3,-8 8,-8 4,0 8,4 8,8 0,5 -4,9 -8,9zm504 -68c-3,0 -6,-3 -6,-7 0,-3 3,-6 6,-6 4,0 7,3 7,6 0,4 -3,7 -7,7z"/>
  </g>
  <path class="fil2" d="M4116 5446c98,0 177,79 177,177 0,98 -79,177 -177,177 -98,0 -177,-79 -177,-177 0,-98 79,-177 177,-177zm0 33c79,0 144,65 144,144 0,79 -65,144 -144,144 -79,0 -144,-65 -144,-144 0,-79 65,-144 144,-144z"/>
  <path class="fil3" d="M3559 5871c1,0 3,0 6,0 2,0 8,0 15,0 11,0 20,3 26,9 7,6 10,14 10,24 0,10 -3,18 -10,24 -6,5 -15,8 -26,8l-34 0 0 -1 2 0c1,0 2,0 4,-1 1,-1 1,-3 2,-4l0 -55c-7,1 -13,2 -16,5 -2,1 -3,3 -4,4 -1,2 -2,3 -3,5l-1 0c2,-7 5,-11 10,-14 4,-3 11,-4 19,-4zm20 61c7,0 12,-2 16,-7 4,-5 6,-12 6,-21 0,-9 -2,-16 -6,-21 -4,-5 -9,-8 -16,-8 0,0 0,0 0,0l-11 0 0 57 11 0c0,0 0,0 0,0zm111 3l1 0 0 1 -28 0 0 -1 1 0c2,0 3,0 4,-1 2,-1 2,-3 2,-4l0 -55 -9 0c-5,1 -8,3 -8,7 0,1 0,3 1,4 1,1 3,2 5,2 0,0 0,0 1,0l0 0c-2,1 -3,1 -4,1 -2,0 -4,-1 -6,-3 -1,-1 -2,-3 -2,-5 0,-2 2,-5 4,-6 2,-2 5,-3 10,-4 0,0 3,0 7,0 11,0 18,-1 22,-2l1 1c-3,1 -5,1 -6,3 -1,1 -2,3 -2,6l0 51c0,1 1,3 2,4 1,1 3,1 4,1zm127 20c-2,0 -3,0 -5,-1 -6,0 -11,-3 -15,-6 -5,-4 -8,-9 -9,-14 -6,2 -13,4 -19,4 -12,0 -21,-4 -28,-10 -7,-6 -11,-14 -11,-24 0,-7 2,-13 5,-18 4,-5 8,-9 14,-12 6,-3 13,-4 20,-4 5,0 10,0 15,1 4,1 8,2 11,4l0 16 -1 0c-1,-6 -4,-10 -8,-13 -4,-3 -10,-4 -16,-4 -7,0 -13,3 -18,8 -4,6 -6,13 -6,22 0,9 2,16 6,21 5,6 11,9 18,9 4,0 7,-1 10,-3 3,-1 5,-4 6,-6l0 -15c0,-1 -1,-2 -2,-3 0,-1 -2,-1 -3,-1l-2 0 0 -1 27 0 0 1 -2 0c-1,0 -2,0 -3,1 -1,1 -1,2 -1,3l0 15c0,4 0,8 2,12 3,7 9,12 16,14 2,0 5,0 7,0 2,0 4,0 7,0l0 1c-6,2 -11,3 -15,3zm61 -20l1 0 0 1 -28 0 0 -1 1 0c2,0 3,0 4,-1 1,-1 2,-3 2,-4l0 -55 -9 0c-6,1 -9,3 -9,7 0,1 1,3 2,4 1,1 3,2 5,2 0,0 0,0 1,0l0 0c-2,1 -3,1 -4,1 -2,0 -5,-1 -6,-3 -1,-1 -2,-3 -2,-5 0,-2 1,-5 4,-6 2,-2 5,-3 10,-4 0,0 3,0 7,0 10,0 18,-1 22,-2l0 1c-2,1 -4,1 -5,3 -1,1 -2,3 -2,6l0 51c0,1 1,3 2,4 1,1 2,1 4,1zm111 -25c-2,4 -3,8 -3,12 0,5 1,9 5,12 1,3 4,4 7,5 2,2 5,2 9,2 3,0 6,0 8,-2 6,-2 8,-6 8,-12 0,-2 0,-5 -2,-7 -1,-2 -4,-5 -6,-7l-16 -10c-6,-4 -10,-9 -10,-15 0,-1 0,-1 1,-2 0,-5 2,-9 5,-12 4,-3 8,-4 14,-4 4,0 8,0 13,1l6 0 -1 13 -1 0c0,-3 -2,-5 -4,-7 -2,-2 -6,-3 -10,-3 -4,0 -8,1 -10,4 -1,2 -2,3 -2,5 0,2 1,3 2,4 1,2 3,3 5,4l17 12c4,2 7,5 9,8 2,3 3,7 3,11 0,3 0,5 -1,8 -1,3 -3,5 -5,8 -3,2 -6,4 -9,5 -4,2 -8,3 -13,3 -4,0 -8,-1 -12,-3 -6,-2 -11,-7 -12,-14 -1,-2 -1,-3 -1,-5 0,-5 2,-10 6,-15l0 1zm87 25c2,0 3,0 5,-1 1,-1 1,-3 1,-4l0 -52c0,-3 -1,-4 -3,-5 -1,-1 -2,-1 -3,-1l-1 0 0 -1 26 0c3,0 6,0 8,-1 2,0 3,0 4,-1l0 17 -1 0 0 -1c0,-3 -1,-5 -3,-7 -1,-2 -4,-3 -6,-3l-7 0 0 27 15 0c3,0 4,-1 6,-2 1,-2 2,-4 2,-6l0 -1 1 0 0 22 -1 0 0 -1c0,-2 -1,-4 -2,-6 -2,-1 -3,-2 -6,-2l-15 0 0 26 19 0c4,0 8,-1 11,-4 3,-2 5,-6 7,-11l1 0 -5 19 -54 0 0 -1 1 0zm192 17c-5,3 -10,4 -16,4 -5,0 -9,-1 -13,-2 -9,-4 -16,-10 -22,-19 -2,-2 -5,-6 -9,-13 -4,-6 -7,-10 -8,-12 -2,-3 -4,-5 -5,-6l0 0c0,0 0,0 0,0 0,0 0,0 0,0 0,0 1,0 1,0 0,0 0,0 0,0 0,0 1,0 1,0 3,0 6,-1 8,-3 4,-2 6,-6 6,-12 0,-4 -1,-8 -3,-10 -3,-3 -6,-4 -9,-4l-7 0 0 55c0,1 0,3 1,4 2,1 3,1 5,1l1 0 0 1 -28 0 0 -1 1 0c1,0 3,0 4,-1 1,-1 2,-3 2,-4l0 -52c0,-2 -1,-3 -2,-4 -1,-1 -3,-2 -4,-2l-1 0 0 -1 32 0c8,0 14,2 18,6 4,2 5,6 5,12 0,5 -1,9 -5,12 -3,4 -7,5 -11,5 -1,0 -1,0 -1,0 2,2 4,3 6,5 2,1 3,3 4,5 2,1 3,2 4,4 1,1 2,2 3,4 2,2 3,4 5,6 2,2 3,4 5,6 2,2 4,4 7,6 2,2 5,4 7,5 5,3 11,4 18,4l0 1zm85 -104c2,0 3,0 4,0l0 1c-4,0 -7,1 -10,3 -3,2 -5,4 -6,5 -2,2 -3,3 -4,4 0,1 -1,3 -2,4 -1,2 -2,4 -3,6l-25 55c-3,6 -5,10 -5,12l-1 0 -28 -61c-1,-1 -2,-3 -3,-4 -2,-1 -3,-1 -5,-1l0 0 0 -1 29 0 0 1 -1 0c-1,0 -2,0 -3,1 0,1 -1,2 -1,3 0,0 1,1 1,2l16 38 19 -45c3,-7 6,-12 10,-15 6,-5 12,-8 18,-8zm51 87l2 0 0 1 -29 0 0 -1 1 0c2,0 3,0 5,-1 1,-1 1,-3 1,-4l0 -55 -8 0c-6,1 -9,3 -9,7 0,1 0,3 1,4 2,1 3,2 5,2 0,0 1,0 1,0l0 0c-1,1 -2,1 -3,1 -3,0 -5,-1 -7,-3 -1,-1 -1,-3 -1,-5 0,-2 1,-5 3,-6 2,-2 5,-3 10,-4 1,0 3,0 8,0 10,0 17,-1 22,-2l0 1c-3,1 -5,1 -6,3 -1,1 -2,3 -2,6l0 51c0,1 1,3 2,4 1,1 3,1 4,1zm113 -35c0,2 0,4 0,7 0,3 0,6 -1,10 -1,4 -3,8 -6,11 -6,6 -15,10 -25,10 -13,0 -23,-3 -30,-10 -7,-6 -11,-14 -11,-24 0,-10 4,-19 11,-25 8,-6 17,-9 30,-9 4,0 9,0 13,1 4,1 8,2 10,4l1 16 -1 0c-1,-4 -3,-7 -5,-10 -5,-5 -11,-7 -19,-7 -7,0 -13,2 -18,8 -5,5 -7,12 -7,21 0,9 3,16 7,22 5,6 12,9 20,9 9,0 17,-3 22,-9 6,-6 8,-14 8,-24 0,0 0,-1 0,-1l1 0zm39 35c2,0 3,0 5,-1 1,-1 1,-3 1,-4l0 -52c0,-3 -1,-4 -3,-5 -1,-1 -2,-1 -3,-1l-1 0 0 -1 26 0c3,0 6,0 8,-1 2,0 3,0 4,-1l0 17 -1 0 0 -1c0,-3 -1,-5 -3,-7 -1,-2 -4,-3 -6,-3l-7 0 0 27 15 0c2,0 4,-1 6,-2 1,-2 2,-4 2,-6l0 -1 1 0 0 22 -1 0 0 -1c0,-2 -1,-4 -2,-6 -2,-1 -3,-2 -6,-2l-15 0 0 26 19 0c4,0 8,-1 11,-4 3,-2 5,-6 7,-11l1 0 -5 19 -54 0 0 -1 1 0zm99 -25c-2,4 -4,8 -4,12 0,5 2,9 5,12 2,3 4,4 7,5 3,2 6,2 9,2 4,0 6,0 9,-2 5,-2 8,-6 8,-12 0,-2 -1,-5 -2,-7 -2,-2 -4,-5 -7,-7l-16 -10c-6,-4 -9,-9 -9,-15 0,-1 0,-1 0,-2 1,-5 2,-9 6,-12 3,-3 8,-4 14,-4 3,0 8,0 13,1l5 0 -1 13 -1 0c0,-3 -1,-5 -3,-7 -3,-2 -6,-3 -10,-3 -5,0 -8,1 -11,4 -1,2 -1,3 -1,5 0,2 0,3 1,4 2,2 3,3 5,4l18 12c3,2 6,5 8,8 3,3 4,7 4,11 0,3 -1,5 -2,8 -1,3 -2,5 -5,8 -2,2 -5,4 -9,5 -3,2 -8,3 -12,3 -4,0 -8,-1 -12,-3 -7,-2 -11,-7 -13,-14 0,-2 0,-3 0,-5 0,-5 2,-10 5,-15l1 1z"/>
  <path class="fil4" d="M4104 5671c3,0 6,-1 9,-4 3,-2 4,-5 4,-9l0 -53 -65 0 0 53c0,17 -5,30 -13,40 -7,8 -16,12 -29,12 -4,0 -8,-1 -13,-2l0 -2c10,-4 16,-10 19,-19 3,-7 4,-17 4,-29l0 -116c0,-3 -1,-7 -4,-9 -2,-3 -5,-4 -9,-4l-3 0 0 -2 64 0 0 2 -3 0c-5,0 -9,2 -11,6 -2,2 -2,5 -2,7l0 54 65 0 0 -50c0,-16 5,-29 15,-39 9,-8 19,-12 31,-12 3,0 6,0 9,1l0 2c-10,4 -17,10 -20,19 -2,8 -4,17 -4,29l0 112c0,5 3,9 7,11 2,1 4,2 7,2l2 0 0 2 -63 0 0 -2 3 0z"/>
  <path class="fil5" d="M4237 5661c0,4 0,10 0,17 0,6 -1,15 -4,24 -2,10 -7,18 -14,26 -14,15 -34,23 -59,23 -30,0 -53,-8 -71,-23 -17,-14 -26,-34 -26,-58 0,-24 9,-43 26,-58 18,-15 41,-23 70,-23 11,0 22,1 32,4 10,2 18,5 25,8l1 38 -2 0c-3,-9 -7,-17 -13,-23 -11,-12 -25,-17 -43,-17 -18,0 -32,6 -43,19 -11,13 -17,30 -17,51 0,21 6,38 17,52 12,13 27,20 48,20 21,0 39,-7 51,-20 13,-14 20,-33 20,-57 0,-1 0,-2 0,-3l2 0z"/>
 </g>
</svg>
